<svg width="20" height="21" viewBox="0 0 20 21" fill="none" xmlns="http://www.w3.org/2000/svg" aria-hidden="true">
<path d="M10.2447 5.25397C10.5702 4.92853 11.0978 4.92853 11.4232 5.25397L16.4232 10.254C16.5795 10.4102 16.6673 10.6222 16.6673 10.8432C16.6673 11.0642 16.5795 11.2762 16.4232 11.4325L11.4232 16.4325C11.0978 16.7579 10.5702 16.7579 10.2447 16.4325C9.91929 16.107 9.91929 15.5794 10.2447 15.254L13.8221 11.6766L4.16732 11.6766C3.70708 11.6766 3.33398 11.3035 3.33398 10.8432C3.33398 10.383 3.70708 10.0099 4.16732 10.0099L13.8221 10.0099L10.2447 6.43248C9.91929 6.10704 9.91929 5.5794 10.2447 5.25397Z"/>
</svg>
