<svg width="18" height="18" viewBox="0 0 18 18" xmlns="http://www.w3.org/2000/svg" aria-hidden="true">
    <path d="M7.33329 2.33366C4.57187 2.33366 2.33329 4.57224 2.33329 7.33366C2.33329 10.0951 4.57187 12.3337 7.33329 12.3337C10.0947 12.3337 12.3333 10.0951 12.3333 7.33366C12.3333 4.57224 10.0947 2.33366 7.33329 2.33366ZM0.666626 7.33366C0.666626 3.65176 3.65139 0.666992 7.33329 0.666992C11.0152 0.666992 14 3.65176 14 7.33366C14 8.87425 13.4774 10.2928 12.5998 11.4217L17.0892 15.9111C17.4147 16.2365 17.4147 16.7641 17.0892 17.0896C16.7638 17.415 16.2361 17.415 15.9107 17.0896L11.4213 12.6002C10.2924 13.4778 8.87389 14.0003 7.33329 14.0003C3.65139 14.0003 0.666626 11.0156 0.666626 7.33366Z"/>
</svg>